<?xml version="1.0" encoding="UTF-8"?>
<svg version="1.1" viewBox="0 0 2048 1587" width="1280" height="1280" xmlns="http://www.w3.org/2000/svg">
<path transform="translate(0)" d="m0 0h2048v1587h-2048z" fill="#fff"/>
<path transform="translate(1179,141)" d="m0 0h48l41 2 54 5 28 4 49 9 40 10 30 9 35 13 25 11 16 8 20 11 18 12 16 12 12 11 2 1v2h2l7 8 12 15 10 17 5 11 5 17 1 6 1 17v57l-1 653-3 17-6 17-10 18-8 10-11 13-11 11-11 9-18 13-19 12-26 14-17 8-26 10-20 7-33 10-41 10-37 7-35 5-49 5-43 2h-81l-8 11-12 17-12 16-12 14-9 10-7 8-16 16-8 7-12 11-13 10-19 14-15 10-25 15-21 11-22 10-27 10-32 10-30 7-31 5-34 3h-47l-34-3-36-6-32-8-33-11-34-14-20-10-19-11-16-10-16-11-16-12-17-14-13-12-7-7-5-4-7-8-9-9-9-11-10-12-15-20-14-21-12-21-14-27-12-29-8-21-10-36-6-31-4-30-2-28v-35l3-37 5-32 8-34 8-26 9-24 8-18 10-21 11-20 13-21 10-14 13-18 13-15 11-12 7-8 9-9 8-7 11-10 8-7 14-11 19-14 19-12 17-10 18-10 21-10 29-11 24-8 32-8 35-6 24-3 19-2 3-1 1-219 3-21 5-15 9-17 14-19 14-15 10-9 17-13 21-14 21-12 27-13 28-11 36-12 34-9 53-11 40-6 40-4 32-2z" fill="#020202"/>
<path transform="translate(746,609)" d="m0 0h27l33 2 28 4 29 6 25 7 23 8 23 10 16 8 19 10 18 11 17 12 13 10 11 9 10 9 8 7 12 11 7 7 7 8 11 13 14 19 12 17 12 20 13 24 12 28 9 25 8 29 6 29 4 29 1 14v51l-3 32-5 28-8 32-10 30-10 24-11 22-12 21-18 27-9 12-8 10-11 13-12 13-12 12-8 7-10 9-17 13-18 13-18 11-21 12-27 13-27 10-26 8-25 6-30 5-28 3-18 1h-24l-28-2-37-5-40-10-33-12-23-10-17-8-27-16-15-10-19-14-28-24-20-20-7-8-13-15-12-16-18-27-12-21-8-16-10-22-12-34-8-30-7-34-3-29-1-20v-17l2-32 4-31 9-39 12-37 11-26 14-28 8-14 10-15 11-16 8-10 11-13 9-10 7-8 20-20 11-9 16-13 19-14 21-13 25-14 27-12 21-8 26-8 26-6 23-4 27-3z" fill="#fff"/>
<path transform="translate(1159,184)" d="m0 0h81l44 3 38 4 33 5 37 7 40 10 43 14 22 9 26 12 21 12 22 15 14 12 11 11 11 15 8 16 4 16v14l-3 14-5 12-10 16-9 11-14 13-13 10-19 12-24 13-20 9-28 11-35 11-30 8-45 9-33 5-37 4-36 3-21 1h-66l-46-3-32-3-56-9-26-6-29-7-36-11-24-9-23-10-16-8-20-11-17-12-9-7-13-11-7-8-10-14-7-14-4-13-1-5v-17l5-17 8-15 10-13 18-18 17-13 21-13 23-12 22-10 27-10 28-9 40-10 36-7 40-6 40-4z" fill="#fff"/>
<path transform="translate(1612,444)" d="m0 0h2v83l-2 17-4 11-6 11-11 15-9 10-11 10-17 12-15 9-22 12-27 12-24 9-28 9-34 9-39 8-39 6-35 4-37 3-20 1h-76l-33-2-47-5-9-2-15-13-16-13-17-12-15-10-22-13-20-11-24-11-31-12-27-8-24-6-35-7-16-2-6-3-6-12-4-11-1-5v-90h3l13 11 14 10 15 10 13 8 16 9 26 12 28 11 36 12 29 8 41 9 37 6 41 5 38 3 44 2h33l47-2 45-4 39-5 43-8 31-7 35-10 36-12 29-12 23-11 19-11 23-15 9-7 10-9z" fill="#fff"/>
<path transform="translate(1613,617)" d="m0 0h1v80l-2 21-3 10-6 10-8 12-8 10-10 10-17 13-15 10-25 14-24 11-23 9-37 12-40 10-42 8-35 5-49 5-46 3h-31l-4-4-14-33-11-23-12-22-14-22-10-14-9-11-3-6 54 2h49l50-2 42-4 44-6 33-6 39-9 34-10 27-9 34-14 17-8 22-12 17-11 13-9 13-11z" fill="#fff"/>
<path transform="translate(1613,966)" d="m0 0h1v81l-2 19-3 10-6 11-8 12-9 10-5 6-14 11-12 9-18 11-27 14-28 12-38 13-33 9-43 9-38 6-46 5-39 3-22 1h-50l3-9 11-28 10-31 7-26 5-24 2-11 1-2 3-1 45-2 39-3 47-6 29-5 42-9 36-10 36-12 32-13 21-10 24-14 17-11 12-9 13-11z" fill="#fff"/>
<path transform="translate(742,710)" d="m0 0h41l1 1v72l10 2 15 5 21 10 14 10 10 9 7 7 11 15 8 14 7 18 4 18 2 19-1 21-2 2-5 1h-27l-7-1-1-1-1-27-3-16-5-14-8-14-12-14-15-11-13-6-10-3-8-1h-26l-17 4-10 4-11 7-13 12-8 10-8 15-5 16-2 15v9l2 14 5 16 6 12 8 10 10 8 14 7 20 7 57 15 24 8 18 8 14 9 10 9 9 10 8 14 6 14 5 21 1 9v34l-3 17-4 14-5 12-7 13-10 14-19 19-15 10-16 8-21 7-8 1v43l-1 30-1 1h-37l-4-2-1-70-10-4-18-6-16-8-12-8-11-9-8-8-13-18-9-17-7-20-3-16-1-8v-27l1-2 41-1 1 1 1 30 3 15 5 14 6 11 8 10 8 8 14 9 13 6 15 4h26l17-4 16-7 13-9 10-10 11-18 6-16 2-12v-20l-3-18-4-11-7-12-11-11-10-7-13-6-24-8-37-9-24-7-21-8-18-10-10-8-11-11-9-14-5-10-6-18-3-17-1-9v-20l3-20 4-16 6-15 9-16 7-9 9-10 11-10 16-11 21-10 20-6 2-2 1-70z" fill="#020202"/>
<path transform="translate(1613,792)" d="m0 0h1v78l-1 18-3 12-8 14-10 14-9 10-7 7-14 11-15 10-18 10-19 10-26 11-44 15-35 9-38 8-38 6-45 5-35 3-15 1h-17l-1-1-1-47-4-44-6-32v-8l32-1 46-3 39-4 47-7 38-8 28-7 36-11 23-8 25-10 16-8 25-13 20-13 14-10 12-11z" fill="#fff"/>
</svg>
